<?xml version="1.0" encoding="UTF-8"?>
<svg version="1.1" xmlns="http://www.w3.org/2000/svg" width="113" height="24">
<path d="M0 0 C2.3125 -0.25 2.3125 -0.25 5 0 C6.8125 2 6.8125 2 8 4 C8.66 2.68 9.32 1.36 10 0 C13.40038985 -0.35042185 16.6145931 -0.5412406 20 0 C22.625 3 22.625 3 24 6 C24.5775 5.01 25.155 4.02 25.75 3 C26.4925 2.01 27.235 1.02 28 0 C29.32 0 30.64 0 32 0 C32 4.62 32 9.24 32 14 C30.68 14 29.36 14 28 14 C27.67 12.68 27.34 11.36 27 10 C26.01 11.485 26.01 11.485 25 13 C21.125 11.125 21.125 11.125 20 10 C19.67 11.32 19.34 12.64 19 14 C17.68 14 16.36 14 15 14 C14.67 10.37 14.34 6.74 14 3 C11.52214277 6.66291938 10.51035831 9.6109185 10 14 C8.35 14 6.7 14 5 14 C4.731875 12.80375 4.46375 11.6075 4.1875 10.375 C3.25912994 6.62144624 1.86951157 3.39911194 0 0 Z " fill="#5D0000" transform="translate(59,5)"/>
<path d="M0 0 C5.28 0 10.56 0 16 0 C17.32 2.31 18.64 4.62 20 7 C20.99 4.69 21.98 2.38 23 0 C24.65 0 26.3 0 28 0 C26.02 4.62 24.04 9.24 22 14 C20.35 14 18.7 14 17 14 C15.35 10.37 13.7 6.74 12 3 C9.36 3 6.72 3 4 3 C4 3.66 4 4.32 4 5 C6.31 5 8.62 5 11 5 C11 6.32 11 7.64 11 9 C8.69 9 6.38 9 4 9 C4 9.66 4 10.32 4 11 C6.64 11 9.28 11 12 11 C12 11.99 12 12.98 12 14 C8.04 14 4.08 14 0 14 C0 9.38 0 4.76 0 0 Z " fill="#5C0000" transform="translate(1,5)"/>
<path d="M0 0 C2.09375 0.41015625 2.09375 0.41015625 4.65625 1.91015625 C6.69764013 5.46039995 6.87188307 8.41300953 6.09375 12.41015625 C4.65625 14.91015625 4.65625 14.91015625 2.09375 16.41015625 C-1.03925254 17.02389742 -3.77582266 17.05072412 -6.90625 16.41015625 C-10.40993509 13.97902782 -11.66070216 12.58878587 -12.53125 8.41015625 C-11.07523791 1.42129823 -6.56494338 -0.42672132 0 0 Z " fill="#FF6A66" transform="translate(106.90625,3.58984375)"/>
<path d="M0 0 C2.60057161 2.26501399 2.94731161 3.57849291 3.375 7 C2.94731161 10.42150709 2.60057161 11.73498601 0 14 C-3.97344161 15.10373378 -6.08999772 15.41543583 -9.875 13.6875 C-12 12 -12 12 -13 10 C-13.29123466 6.65080137 -13.36462337 4.64243165 -11.6875 1.6875 C-8.12966324 -1.87033676 -4.57542511 -1.06215226 0 0 Z M-7 3 C-7.66 3.66 -8.32 4.32 -9 5 C-8.67958603 7.60280568 -8.67958603 7.60280568 -8 10 C-5.60280568 10.67958603 -5.60280568 10.67958603 -3 11 C-2.34 10.34 -1.68 9.68 -1 9 C-1.32041397 6.39719432 -1.32041397 6.39719432 -2 4 C-4.39719432 3.32041397 -4.39719432 3.32041397 -7 3 Z " fill="#5D0000" transform="translate(41,5)"/>
<path d="M0 0 C0 1.32 0 2.64 0 4 C-2.31 4 -4.62 4 -7 4 C-7.33 5.65 -7.66 7.3 -8 9 C-5.525 9.99 -5.525 9.99 -3 11 C-3 9.35 -3 7.7 -3 6 C-1.68 6 -0.36 6 1 6 C1 8.31 1 10.62 1 13 C-1.75167397 14.8711383 -3.16177901 14.99432354 -6.5625 14.875 C-10 14 -10 14 -11.9375 12.3125 C-13.32431433 9.2941394 -13.4112874 7.29029921 -13 4 C-9.73100355 -1.75966042 -6.02206307 -1.02261448 0 0 Z " fill="#5C0000" transform="translate(58,5)"/>
</svg>
